<?xml version="1.0" encoding="UTF-8" standalone="no"?>
<!-- Created with Inkscape (http://www.inkscape.org/) -->

<svg
   xmlns:dc="http://purl.org/dc/elements/1.1/"
   xmlns:cc="http://creativecommons.org/ns#"
   xmlns:rdf="http://www.w3.org/1999/02/22-rdf-syntax-ns#"
   xmlns:svg="http://www.w3.org/2000/svg"
   xmlns="http://www.w3.org/2000/svg"
   xmlns:sodipodi="http://sodipodi.sourceforge.net/DTD/sodipodi-0.dtd"
   xmlns:inkscape="http://www.inkscape.org/namespaces/inkscape"
   width="215"
   height="215"
   id="svg2"
   version="1.1"
   inkscape:version="0.48.3.1 r9886"
   sodipodi:docname="iclocklogo.svg"
   inkscape:export-filename="/home/jan/sfz/IYPT2012/badges/onelogo.png"
   inkscape:export-xdpi="6.7094941"
   inkscape:export-ydpi="6.7094941">
  <defs
     id="defs4" />
  <sodipodi:namedview
     id="base"
     pagecolor="#ffffff"
     bordercolor="#666666"
     borderopacity="1.0"
     inkscape:pageopacity="0.0"
     inkscape:pageshadow="2"
     inkscape:zoom="4.9674419"
     inkscape:cx="100.21385"
     inkscape:cy="107.5"
     inkscape:document-units="px"
     inkscape:current-layer="layer1"
     showgrid="false"
     inkscape:window-width="1200"
     inkscape:window-height="1895"
     inkscape:window-x="0"
     inkscape:window-y="25"
     inkscape:window-maximized="1"
     fit-margin-top="0"
     fit-margin-left="0"
     fit-margin-right="0"
     fit-margin-bottom="0"
     inkscape:snap-global="false"
     showborder="true"
     borderlayer="false"
     inkscape:showpageshadow="false" />
  <metadata
     id="metadata7">
    <rdf:RDF>
      <cc:Work
         rdf:about="">
        <dc:format>image/svg+xml</dc:format>
        <dc:type
           rdf:resource="http://purl.org/dc/dcmitype/StillImage" />
        <dc:title />
      </cc:Work>
    </rdf:RDF>
  </metadata>
  <g
     inkscape:label="Ebene 1"
     inkscape:groupmode="layer"
     id="layer1"
     transform="translate(-371.72715,-701.9464)">
    <path
       d="m 371.72715,886.34606 215,0 0,-162 -215,0 0,162 z"
       style="fill:#005e8a;fill-opacity:1;fill-rule:nonzero;stroke:none"
       id="path154-9"
       inkscape:connector-curvature="0" />
    <g
       id="g4407"
       transform="matrix(1.3643289,0,0,1.364178,-174.5963,-305.20198)">
      <path
         style="fill:#d1d2d1"
         d="m 473.43103,885.79939 c -0.19528,-0.12343 -0.19927,-0.41857 -0.0289,-2.09215 0.11752,-1.15395 0.2837,-2.03582 0.40774,-2.16277 0.26215,-0.26837 1.49017,-0.0957 1.61397,0.22684 0.0825,0.2148 -0.21177,3.36116 -0.36468,3.90007 -0.0589,0.2074 -0.24395,0.27602 -0.73968,0.27421 -0.36367,-0.002 -0.76346,-0.0671 -0.88842,-0.14626 z m 3.62598,-7.34734 c 0,-4.12277 0.0431,-7.60849 0.0961,-7.74601 0.14331,-0.37349 4.24915,-0.37349 4.39246,0 0.0528,0.1376 0.0959,3.62324 0.0959,7.74601 l 0,7.49597 -2.2922,0 -2.29219,0 0,-7.49597 z m 6.57766,7.21933 c -0.15079,-0.5018 -0.44337,-3.68298 -0.35904,-3.90279 0.12303,-0.32042 1.35222,-0.4914 1.6113,-0.22412 0.31989,0.33005 0.6541,3.84864 0.39516,4.16061 -0.29535,0.35589 -1.53803,0.33048 -1.64742,-0.0337 z m -15.1536,-0.68452 c -0.15217,-0.0886 -0.27664,-0.33668 -0.27664,-0.55123 0,-0.67942 0.65022,-3.45837 0.86017,-3.67619 0.13681,-0.14193 0.38445,-0.17461 0.77156,-0.10197 0.92816,0.17422 0.9708,0.33105 0.58781,2.16326 -0.46474,2.2233 -0.52123,2.33796 -1.14911,2.33212 -0.28444,-0.002 -0.64165,-0.0774 -0.79379,-0.16595 z m 20.30253,-0.10591 c -0.0774,-0.15216 -0.30087,-1.04903 -0.49664,-1.99305 -0.40091,-1.93312 -0.36666,-2.05344 0.63634,-2.23619 0.38355,-0.0699 0.61694,-0.0356 0.73106,0.10708 0.18878,0.23617 0.83961,3.09351 0.83961,3.68637 0,0.21904 -0.13189,0.45579 -0.30577,0.54883 -0.48613,0.26018 -1.24592,0.19905 -1.4046,-0.113 z m -25.16215,-1.1919 c -0.21659,-0.10965 -0.41352,-0.30416 -0.43764,-0.43239 -0.0825,-0.4392 1.16218,-3.86645 1.42268,-3.91718 0.46703,-0.0909 1.38478,0.40584 1.38478,0.74954 0,0.40916 -0.93015,3.34294 -1.14338,3.60633 -0.2038,0.25173 -0.7217,0.24908 -1.22644,-0.006 z m 30.24558,0.0219 c -0.28298,-0.35646 -1.18651,-3.26282 -1.13196,-3.64107 0.0541,-0.37507 1.03779,-0.87133 1.42931,-0.72108 0.1124,0.0431 0.48548,0.94159 0.82893,1.99653 0.55967,1.71907 0.59943,1.94305 0.38331,2.15916 -0.34231,0.34233 -1.29801,0.47302 -1.50959,0.20646 z m -34.94993,-1.83266 c -0.34563,-0.17205 -0.51377,-0.3691 -0.51377,-0.60226 0,-0.39691 1.19691,-3.20071 1.50654,-3.5291 0.24857,-0.26364 0.83229,-0.14488 1.35053,0.27471 l 0.3677,0.29776 -0.68032,1.56171 c -1.06935,2.45476 -1.08342,2.4686 -2.03068,1.99718 z m 39.73302,-0.0797 c -0.45293,-0.70202 -1.53019,-3.33319 -1.45011,-3.54186 0.13228,-0.34473 1.17716,-0.77794 1.451,-0.6016 0.29512,0.18996 1.64406,3.16516 1.64406,3.62605 0,0.2339 -0.17461,0.42359 -0.55867,0.6067 -0.72182,0.34422 -0.81133,0.33686 -1.08628,-0.0894 z m -44.39143,-2.30115 c -0.84497,-0.49505 -1.57708,-1.00254 -1.62693,-1.12777 -0.0516,-0.12934 0.95011,-2.04015 2.32021,-4.42628 3.48625,-6.07152 3.69125,-6.40743 3.93854,-6.45375 0.12323,-0.023 0.97113,0.40371 1.88406,0.94848 1.2243,0.73058 1.65986,1.07346 1.65986,1.30665 0,0.17382 -1.34405,2.6459 -2.98677,5.49334 -2.45594,4.25706 -3.04595,5.17562 -3.31973,5.1683 -0.18307,-0.004 -1.02428,-0.41395 -1.86924,-0.90897 z m 44.98997,-4.24671 c -1.64158,-2.84049 -3.00835,-5.26257 -3.03727,-5.38238 -0.0289,-0.11968 0.0291,-0.31624 0.12894,-0.43656 0.29884,-0.36008 3.32341,-2.01262 3.53501,-1.93144 0.17244,0.0661 5.95604,9.93578 6.17858,10.54372 0.0476,0.13032 0.0343,0.31355 -0.0301,0.40698 -0.20212,0.29364 -3.16714,1.96425 -3.48622,1.96425 -0.23323,0 -1.00137,-1.20617 -3.28898,-5.16457 z m -49.45542,1.31004 c -0.41235,-0.32991 -0.44758,-0.42034 -0.29233,-0.75009 0.29832,-0.63361 2.09558,-2.98965 2.35718,-3.09002 0.13563,-0.0522 0.43123,0.0431 0.65682,0.21155 0.8258,0.61655 0.81318,0.68852 -0.42219,2.40687 -1.26348,1.75746 -1.48366,1.87445 -2.29948,1.22169 z m 56.83853,-1.16179 c -0.61602,-0.84619 -1.12,-1.62239 -1.12,-1.72485 0,-0.28219 0.95523,-1.02672 1.24555,-0.97082 0.26792,0.0516 1.85197,2.04261 2.34125,2.94276 l 0.2862,0.5265 -0.47425,0.38168 c -0.81592,0.65666 -1.04384,0.54113 -2.27875,-1.15527 z m -60.78096,-2.08172 c -0.24168,-0.25225 -0.41503,-0.56694 -0.38526,-0.69932 0.0894,-0.3978 2.50745,-2.95221 2.79456,-2.95221 0.33343,0 1.13255,0.726 1.13255,1.02893 0,0.33511 -2.52857,3.08121 -2.83714,3.08121 -0.14587,0 -0.46306,-0.20638 -0.70471,-0.45861 z m 64.74083,-0.96913 c -0.70725,-0.78527 -1.2859,-1.55439 -1.2859,-1.70918 0,-0.30819 0.79765,-0.97322 1.16728,-0.97322 0.26244,0 2.67673,2.58258 2.75984,2.95221 0.0683,0.3036 -0.73592,1.15793 -1.08998,1.15793 -0.14587,0 -0.84399,-0.64249 -1.55124,-1.42774 z m -68.36212,-2.65153 c -0.23363,-0.24386 -0.42479,-0.5544 -0.42479,-0.69013 0,-0.29551 2.75815,-2.81854 3.0812,-2.81854 0.3006,0 1.02893,0.79802 1.02893,1.12738 0,0.30762 -2.70381,2.82466 -3.03429,2.82466 -0.12441,0 -0.41743,-0.19951 -0.65105,-0.44337 z m 71.93723,-0.84011 c -0.76076,-0.70152 -1.38321,-1.37842 -1.38321,-1.50419 0,-0.36727 0.66623,-1.16437 0.97322,-1.16437 0.36235,0 3.13691,2.49299 3.13691,2.81854 0,0.32731 -0.78375,1.13457 -1.09663,1.12953 -0.13582,-0.002 -0.86952,-0.57796 -1.63029,-1.27951 z m -75.19672,-3.1277 c -0.56702,-0.79629 -0.45452,-1.00196 1.21159,-2.21483 0.84619,-0.61601 1.62236,-1.12 1.72484,-1.12 0.23107,0 1.00486,0.90112 1.00486,1.17018 0,0.10866 -0.16004,0.34034 -0.35569,0.51496 -0.69566,0.62108 -2.84894,2.10883 -3.05213,2.10883 -0.11359,0 -0.35367,-0.20662 -0.53347,-0.45914 z m 78.77716,-0.42928 c -1.50441,-1.0703 -1.96011,-1.47376 -1.96011,-1.73537 0,-0.26906 0.77379,-1.17018 1.00486,-1.17018 0.10256,0 0.87865,0.50399 1.72484,1.12 1.06453,0.77495 1.53853,1.21793 1.53853,1.43785 0,0.39503 -0.58288,1.23612 -0.85665,1.23612 -0.11142,0 -0.76469,-0.39979 -1.45147,-0.88842 z m -80.62057,-2.3942 c -0.29989,-0.20156 -1.96133,-3.15278 -1.96133,-3.48388 0,-0.24944 1.09584,-0.9476 5.17332,-3.29586 2.84533,-1.63868 5.31733,-2.9794 5.49336,-2.9794 0.23809,0 0.57357,0.42488 1.31051,1.65986 0.54477,0.91293 0.97121,1.76347 0.94765,1.8901 -0.0352,0.18938 -10.43431,6.33554 -10.70629,6.32774 -0.0464,-0.002 -0.1622,-0.0547 -0.25722,-0.1185 z m 78.89328,-2.87929 c -2.86681,-1.65014 -5.27611,-3.09725 -5.35397,-3.21579 -0.0974,-0.14843 0.13957,-0.71218 0.76167,-1.81083 0.94952,-1.67701 1.20598,-1.99188 1.55232,-1.90581 0.11634,0.0289 2.53844,1.39494 5.38237,3.03561 3.98051,2.29633 5.17082,3.05344 5.17082,3.28898 0,0.54034 -1.87912,3.59585 -2.21747,3.60569 -0.0459,0.002 -2.42893,-1.34769 -5.29574,-2.99785 z m -82.35945,-3.48788 c -0.24902,-0.55221 -0.25766,-0.66946 -0.0636,-0.86204 0.34821,-0.34546 3.48299,-1.68752 3.72489,-1.59471 0.3464,0.13288 0.78062,1.17711 0.60373,1.45181 -0.19135,0.29702 -3.16654,1.64406 -3.63133,1.64406 -0.25085,0 -0.42455,-0.1752 -0.63377,-0.63912 z m 88.76609,-0.0784 c -0.82599,-0.37914 -1.57014,-0.7958 -1.65368,-0.9259 -0.17678,-0.27537 0.25713,-1.31944 0.60373,-1.45244 0.24189,-0.0927 3.37667,1.24925 3.72489,1.59471 0.19409,0.19252 0.18543,0.30983 -0.0636,0.86204 -0.37323,0.82767 -0.65599,0.81918 -2.61141,-0.0784 z m -87.88801,-3.06604 c -0.30473,-0.5694 -0.19193,-0.95057 0.3594,-1.21342 0.28766,-0.13721 3.47105,-1.43428 7.07416,-2.88246 l 6.55113,-2.63301 0.0959,-1.28736 c 0.1689,-2.26893 1.40595,-4.21151 3.32577,-5.22225 0.76531,-0.40292 0.99884,-0.44576 2.4308,-0.44588 1.47782,-9e-5 1.65638,0.0354 2.66061,0.52983 0.61898,0.30473 1.42974,0.88322 1.90772,1.3612 l 0.83125,0.83127 7.48258,-2.94204 c 4.11541,-1.61811 7.48809,-3.01014 7.49482,-3.09343 0.01,-0.1124 -18.36077,-12.88609 -19.65016,-13.66388 -0.23333,-0.14075 -0.79918,-2.44962 -0.80542,-3.28642 -0.002,-0.34455 0.0835,-0.52906 0.27288,-0.58544 0.7141,-0.21254 3.09173,-0.58647 3.27699,-0.51536 0.11457,0.0439 4.97662,3.35752 10.80473,7.3635 5.82809,4.006 10.69528,7.32153 10.81597,7.36783 0.12795,0.049 7.55862,-5.25536 17.83474,-12.73168 l 17.61535,-12.8159 1.0384,0.0829 c 1.02799,0.0821 1.04848,0.0758 2.04641,-0.62696 0.55441,-0.3904 1.09599,-0.70981 1.20352,-0.70981 0.26787,0 0.84934,0.84621 0.84934,1.23608 0,0.20266 -0.30072,0.53282 -0.82993,0.91121 -1.08563,0.77619 -1.17156,0.89332 -1.30038,1.77236 -0.0697,0.47588 -0.26085,0.90935 -0.53063,1.20345 l -0.42166,0.45969 0.86944,-0.48763 c 0.47819,-0.26819 1.43854,-0.81241 2.1341,-1.20938 0.69556,-0.39698 1.34583,-0.72232 1.44502,-0.72297 0.23087,-0.002 2.11184,3.21213 2.11184,3.60808 0,0.22536 -1.2648,1.02777 -5.1772,3.28453 -2.84743,1.64249 -5.31945,2.98634 -5.49334,2.98634 -0.23065,0 -0.55132,-0.3952 -1.18562,-1.46118 -0.4782,-0.80365 -0.9306,-1.46167 -1.00537,-1.46226 -0.14665,-10e-4 -18.32365,13.13791 -18.81227,13.59821 -0.28676,0.27012 -0.28261,0.31111 0.15708,1.55242 0.29491,0.83257 0.39712,1.32512 0.29454,1.41939 -0.0864,0.0793 -1.98887,0.80275 -4.2277,1.60738 -2.23885,0.80466 -4.07062,1.51615 -4.07062,1.58107 0,0.065 0.81808,0.67453 1.81795,1.3546 1.35616,0.92246 1.81519,1.31913 1.8071,1.56168 -0.0157,0.50042 -2.38929,3.79426 -2.77315,3.84991 -0.20532,0.0297 -1.30041,-0.62259 -2.9853,-1.77841 -1.46356,-1.00399 -2.71795,-1.82544 -2.78753,-1.82544 -0.0695,0 -1.9608,1.3366 -4.2027,2.97022 -2.24192,1.63362 -4.15871,3.02102 -4.25954,3.08311 -0.34731,0.21386 -0.64351,-0.0673 -1.80587,-1.71414 -0.64123,-0.90849 -1.23848,-1.64823 -1.32722,-1.64386 -0.0888,0.004 -1.69081,0.56233 -3.56015,1.23992 l -3.39874,1.23197 -0.0959,1.27257 c -0.12225,1.62304 -0.75761,3.04414 -1.84934,4.13584 -1.27974,1.27975 -1.8753,1.51593 -3.82487,1.51686 -1.53959,0 -1.73709,-0.0358 -2.72545,-0.50399 -0.62694,-0.29699 -1.39468,-0.83387 -1.865,-1.30417 -0.43968,-0.43969 -0.88722,-0.79942 -0.99456,-0.79942 -0.10729,0 -3.31489,1.10263 -7.12787,2.45027 -3.81299,1.34766 -7.02712,2.45029 -7.14256,2.45029 -0.11535,0 -0.28349,-0.1376 -0.37349,-0.30577 z m 20.9403,-5.84057 c 0.98088,-0.45042 1.26596,-0.86421 1.25684,-1.82434 -0.0197,-2.03823 -1.78697,-3.03695 -3.51508,-1.98603 -1.0408,0.63294 -1.23966,2.02192 -0.45599,3.18481 0.63633,0.94422 1.55778,1.15659 2.71423,0.62556 z m -23.47004,4.65075 c -0.10531,-0.12697 -0.22901,-0.50963 -0.27472,-0.85029 l -0.0831,-0.61938 1.71794,-0.57243 c 2.18956,-0.72959 2.37905,-0.72987 2.68248,-0.004 0.13071,0.31282 0.216,0.68001 0.18957,0.81597 -0.0313,0.16083 -0.68202,0.45936 -1.86082,0.85393 -2.04583,0.68481 -2.10689,0.69448 -2.37135,0.37583 z m 92.23569,-0.38751 c -1.12195,-0.38297 -1.75599,-0.68154 -1.78703,-0.8415 -0.0264,-0.13642 0.0589,-0.50391 0.18957,-0.81673 0.1752,-0.41912 0.33329,-0.5688 0.60103,-0.5688 0.43705,0 3.27945,0.92072 3.58075,1.15989 0.24316,0.19312 0.15237,1.10327 -0.14567,1.46256 -0.25823,0.31115 -0.46855,0.27705 -2.43855,-0.39542 z m -93.65801,-4.74594 c -0.09,-0.16812 -0.16358,-0.55356 -0.16358,-0.85637 0,-0.53588 0.0222,-0.55539 0.82993,-0.731 3.00697,-0.65371 3.15286,-0.67339 3.36621,-0.45396 0.32012,0.32922 0.45179,1.30834 0.20271,1.50746 -0.23618,0.18878 -3.0935,0.83962 -3.68636,0.83962 -0.21904,0 -0.45578,-0.13189 -0.54885,-0.30575 z m 94.88795,-0.0642 c -0.80161,-0.1878 -1.53571,-0.42107 -1.63136,-0.51843 -0.21749,-0.22136 -0.0431,-1.24506 0.25399,-1.49169 0.16142,-0.13406 0.63781,-0.0904 1.91997,0.17539 2.1166,0.43891 2.25853,0.50893 2.25853,1.11405 0,1.18811 -0.38404,1.28693 -2.80113,0.72068 z m -95.74605,-4.93873 c -0.0528,-0.1376 -0.0959,-0.52398 -0.0959,-0.85879 0,-0.44272 0.0754,-0.6314 0.27664,-0.69186 0.5018,-0.15079 3.68298,-0.44337 3.90279,-0.359 0.32016,0.12284 0.49174,1.35299 0.22413,1.60687 -0.11791,0.11182 -0.90231,0.28204 -1.74311,0.37812 -2.05906,0.23532 -2.44968,0.22386 -2.5645,-0.0754 z m 96.41308,0.0585 c -0.69556,-0.0821 -1.36112,-0.24276 -1.47903,-0.35699 -0.26729,-0.25896 -0.0963,-1.48823 0.22413,-1.61119 0.21979,-0.0845 3.40099,0.20829 3.90277,0.35901 0.20682,0.0622 0.27664,0.25203 0.27664,0.75221 0,1.10901 -0.22674,1.17547 -2.92451,0.85696 z m -96.63548,-3.79214 c -0.26225,-0.26224 -0.26225,-3.94273 0,-4.20497 0.14212,-0.14213 2.05922,-0.18977 7.65403,-0.18977 4.10539,0 7.57687,0.0431 7.7144,0.0959 0.37351,0.14331 0.37351,4.24915 0,4.39246 -0.1376,0.0527 -3.60901,0.0961 -7.7144,0.0961 -5.59481,0 -7.51185,-0.0474 -7.65403,-0.18976 z m 84.26557,0.0858 c -0.14429,-0.0589 -0.1976,-0.65243 -0.1976,-2.19843 0,-2.06538 0.008,-2.12007 0.35568,-2.20428 0.19567,-0.0475 3.69912,-0.0667 7.78553,-0.0425 l 7.42987,0.0439 0,2.21314 0,2.21314 -7.58794,0.0278 c -4.17336,0.0157 -7.67685,-0.008 -7.78554,-0.0528 z m -82.55829,-6.29902 c -0.82597,-0.11339 -1.51957,-0.21305 -1.5413,-0.22146 -0.0217,-0.008 -0.0384,-0.3176 -0.037,-0.68711 0.004,-1.14707 0.0203,-1.15376 2.23836,-0.92801 2.28779,0.23286 2.4558,0.33097 2.24948,1.3138 -0.13839,0.65963 -0.163,0.68202 -0.77533,0.70511 -0.34778,0.0138 -1.30812,-0.0689 -2.1341,-0.18229 z m 93.52058,0.10394 c -0.22512,-0.36424 -0.27079,-1.39307 -0.0693,-1.56032 0.11733,-0.0972 1.08974,-0.26726 2.16109,-0.37768 2.21712,-0.22851 2.23373,-0.22164 2.23789,0.92253 0.002,0.7709 0.0876,0.73165 -2.13168,0.98549 -1.73048,0.19791 -2.09121,0.20286 -2.19804,0.0299 z m -92.34464,-4.98979 c -0.87477,-0.19469 -1.67506,-0.40615 -1.77843,-0.47003 -0.20171,-0.1246 -0.24311,-0.74491 -0.0882,-1.32263 0.0711,-0.2652 0.21197,-0.35568 0.55389,-0.35568 0.66146,0 3.49768,0.63273 3.74532,0.83555 0.23032,0.18858 0.1252,1.14592 -0.16417,1.49616 -0.20955,0.25358 -0.35861,0.24154 -2.26836,-0.18327 z m 91.65166,0.18327 c -0.28943,-0.35024 -0.39445,-1.30754 -0.16417,-1.49616 0.23431,-0.19193 3.06848,-0.83554 3.67916,-0.83554 0.45762,0 0.71968,0.40037 0.71968,1.09956 0,0.59317 -0.15473,0.6694 -2.2499,1.10781 -1.81356,0.37949 -1.77591,0.37713 -1.98481,0.12441 z m -90.45637,-5.03692 c -1.80571,-0.58467 -1.97231,-0.71678 -1.83394,-1.45437 0.18859,-1.00477 0.36792,-1.02889 2.4971,-0.33571 1.04813,0.34122 1.94099,0.71243 1.98414,0.82489 0.0431,0.11241 -0.0217,0.46857 -0.1439,0.79135 -0.29087,0.76747 -0.60306,0.78915 -2.50334,0.17382 z m 89.0625,-0.0768 c -0.13071,-0.31284 -0.21597,-0.68143 -0.18938,-0.81907 0.0321,-0.16653 0.69125,-0.46227 1.97133,-0.88432 2.14873,-0.70847 2.32936,-0.68511 2.51899,0.32575 0.13917,0.74133 -0.0289,0.87194 -1.87532,1.45725 -1.99115,0.63119 -2.13046,0.62662 -2.42554,-0.0795 z m -82.26499,-5.92535 c -3.6755,-2.13962 -5.15183,-3.07926 -5.18747,-3.3016 -0.0598,-0.373 1.81481,-3.64121 2.08854,-3.64121 0.35486,0 10.76356,6.09634 10.80697,6.32961 0.0236,0.12697 -0.40278,0.97771 -0.94755,1.89063 -0.69361,1.16238 -1.08525,1.66788 -1.30665,1.6866 -0.17382,0.0138 -2.62811,-1.31911 -5.45384,-2.96403 z m -4.97957,1.33393 c -2.06542,-0.93072 -2.10877,-0.97521 -1.74197,-1.78859 0.21423,-0.47508 0.38054,-0.63914 0.6479,-0.63914 0.48343,0 3.4243,1.34181 3.62338,1.65321 0.19331,0.30253 -0.34725,1.40927 -0.71137,1.45626 -0.13051,0.0177 -0.9485,-0.28996 -1.81794,-0.68174 z m 85.59963,0.22016 c -0.36118,-0.59239 -0.39764,-0.96227 -0.11673,-1.18523 0.38252,-0.30373 3.16628,-1.46266 3.51327,-1.46266 0.49296,0 1.04151,1.16771 0.70297,1.4964 -0.22808,0.22146 -3.38936,1.66526 -3.64615,1.66526 -0.077,0 -0.28099,-0.23121 -0.45328,-0.51377 z m -80.82043,-8.98459 c -1.69638,-1.23491 -1.81194,-1.46283 -1.15527,-2.27875 l 0.38168,-0.47425 0.5265,0.2862 c 0.90015,0.48928 2.89116,2.07333 2.94275,2.34125 0.0559,0.29032 -0.68863,1.24555 -0.97082,1.24555 -0.10256,0 -0.87865,-0.50398 -1.72484,-1.12 z m 3.05085,-3.95987 c -0.78525,-0.70725 -1.42774,-1.40531 -1.42774,-1.55124 0,-0.35406 0.85432,-1.15824 1.15793,-1.08998 0.3978,0.0894 2.9522,2.50746 2.9522,2.79457 0,0.33343 -0.72601,1.13255 -1.02893,1.13255 -0.12421,0 -0.8682,-0.57865 -1.65346,-1.2859 z m 69.95267,0.85281 c -0.22089,-0.23822 -0.4016,-0.55296 -0.4016,-0.69946 0,-0.28711 2.5544,-2.70512 2.9522,-2.79457 0.30361,-0.0683 1.15793,0.73592 1.15793,1.08998 0,0.30857 -2.7461,2.83714 -3.0812,2.83714 -0.12421,0 -0.40646,-0.19488 -0.62733,-0.43309 z m -54.68346,-1.18724 c -0.84444,-1.33429 -5.94738,-10.33357 -5.94738,-10.48847 0,-0.24398 3.18953,-2.11857 3.60465,-2.11857 0.24018,0 0.97714,1.15883 3.29247,5.17719 1.64065,2.84744 2.98301,5.31946 2.98301,5.49334 0,0.23331 -0.43473,0.57507 -1.659,1.30417 -0.91245,0.54342 -1.74665,0.98803 -1.85382,0.98803 -0.10709,0 -0.29611,-0.16004 -0.41993,-0.35569 z m 39.42216,-0.62985 c -1.24297,-0.74171 -1.65987,-1.07161 -1.65987,-1.31347 0,-0.17756 1.34256,-2.64964 2.98347,-5.49336 2.26442,-3.92422 3.05578,-5.17036 3.2835,-5.17036 0.3919,0 3.41828,1.75036 3.5354,2.04477 0.0789,0.19855 -1.23777,2.58403 -5.06672,9.179 -0.53002,0.91291 -1.06542,1.67874 -1.18979,1.70185 -0.12442,0.0232 -0.97307,-0.40366 -1.88599,-0.94843 z m -51.16712,-2.58337 c -0.68038,-0.74566 -1.26141,-1.46407 -1.29117,-1.59645 -0.0683,-0.30361 0.73589,-1.15793 1.08997,-1.15793 0.30857,0 2.83714,2.7461 2.83714,3.0812 0,0.30292 -0.79912,1.02893 -1.13255,1.02893 -0.14646,0 -0.82302,-0.61009 -1.50339,-1.35575 z m 62.98211,0.95415 c -0.23821,-0.22087 -0.43309,-0.50318 -0.43309,-0.62733 0,-0.32304 2.52302,-3.0812 2.81854,-3.0812 0.31441,0 1.1335,0.77745 1.1335,1.07586 0,0.33046 -2.51704,3.03427 -2.82468,3.03427 -0.14371,0 -0.45605,-0.18071 -0.69427,-0.4016 z m -32.58586,-0.63885 c -0.0528,-0.1376 -0.0961,-3.62323 -0.0961,-7.74602 l 0,-7.49597 2.29219,0 2.2922,0 0,7.49597 c 0,4.12279 -0.0431,7.60848 -0.0959,7.74602 -0.14331,0.37349 -4.24915,0.37349 -4.39246,0 z m -25.65872,-2.31879 c -0.58046,-0.63573 -2.10159,-2.84759 -2.10159,-3.05588 0,-0.27377 0.8411,-0.85665 1.23612,-0.85665 0.21995,0 0.66293,0.474 1.43786,1.53853 0.61599,0.84619 1.11999,1.62238 1.11999,1.72484 0,0.23107 -0.90111,1.00486 -1.17017,1.00486 -0.10866,0 -0.34359,-0.16004 -0.52221,-0.3557 z m 54.51284,-0.0461 c -0.27242,-0.22924 -0.49532,-0.50064 -0.49532,-0.60312 0,-0.10236 0.50398,-0.87865 1.12,-1.72484 1.23491,-1.69638 1.46283,-1.81194 2.27875,-1.15528 l 0.47425,0.38168 -0.2862,0.52651 c -0.48928,0.90015 -2.07333,2.89116 -2.34125,2.94275 -0.14016,0.027 -0.4778,-0.13839 -0.75023,-0.3677 z m -46.13037,-4.69642 c -0.36278,-0.56845 -1.47339,-3.22093 -1.47339,-3.51892 0,-0.48901 1.16908,-1.03207 1.50117,-0.69732 0.23268,0.23453 1.66047,3.35501 1.66047,3.62899 0,0.2065 -0.95265,0.78351 -1.29484,0.78426 -0.14705,3.3e-4 -0.32406,-0.0884 -0.39341,-0.19701 z m 37.77046,-0.11673 c -0.28256,-0.17225 -0.51377,-0.38399 -0.51377,-0.47044 0,-0.27398 1.42782,-3.39446 1.6605,-3.62899 0.33209,-0.33475 1.50116,0.20831 1.50116,0.69731 0,0.298 -1.11061,2.95048 -1.47339,3.51893 -0.18091,0.28335 -0.58394,0.24325 -1.1745,-0.11674 z m -33.37759,-1.78017 c -0.0732,-0.19567 -0.36927,-1.0793 -0.658,-1.9637 -0.59095,-1.8102 -0.55018,-2.01743 0.43326,-2.20192 0.74132,-0.13918 0.87194,0.0289 1.45722,1.87532 0.62786,1.98062 0.62418,2.13148 -0.0591,2.41694 -0.7565,0.31609 -1.01845,0.28782 -1.17348,-0.12658 z m 28.95131,0.12304 c -0.66359,-0.29239 -0.65863,-0.51769 0.0587,-2.67033 l 0.57243,-1.71794 0.63493,0.0852 c 1.19065,0.15965 1.2222,0.31961 0.49729,2.52084 -0.6971,2.11674 -0.79031,2.21095 -1.76331,1.78225 z m -24.18093,-1.21758 c -0.20282,-0.24764 -0.83554,-3.08386 -0.83554,-3.74532 0,-0.48792 0.27857,-0.64704 1.14053,-0.65137 0.54892,-0.002 0.63252,0.175 1.06649,2.26755 0.40091,1.93312 0.36665,2.05343 -0.63635,2.23619 -0.3829,0.0697 -0.61843,0.0354 -0.73513,-0.10709 z m 19.60802,0.0754 c -0.6962,-0.13544 -0.73734,-0.38971 -0.35869,-2.21578 0.4389,-2.1166 0.50892,-2.25853 1.11405,-2.25853 0.68601,0 1.09062,0.26431 1.09062,0.71247 0,0.57585 -0.64823,3.44693 -0.82957,3.6743 -0.15709,0.19691 -0.36326,0.21468 -1.01641,0.0876 z m -14.86575,-0.86332 c -0.0972,-0.11733 -0.26727,-1.08976 -0.37768,-2.16111 -0.22831,-2.21523 -0.22075,-2.23373 0.91489,-2.23789 0.49536,-0.002 0.68113,0.0669 0.7407,0.27424 0.19252,0.67026 0.44786,3.86487 0.31908,3.9935 -0.26634,0.26597 -1.40736,0.35975 -1.59699,0.1313 z m 9.94407,0.0701 c -0.20095,-0.0384 -0.40314,-0.16831 -0.44934,-0.28863 -0.0852,-0.22236 0.20567,-3.40014 0.3577,-3.90627 0.062,-0.20669 0.25028,-0.27605 0.74428,-0.27424 1.13563,0.004 1.14321,0.0226 0.9149,2.23789 -0.11044,1.07135 -0.27473,2.03705 -0.36515,2.14599 -0.16299,0.19626 -0.49701,0.21996 -1.20239,0.0852 z"
         id="path3589"
         inkscape:connector-curvature="0" />
      <path
         style="fill:#25254c"
         d="m 477.56924,878.32055 0.0411,-7.46937 1.7389,0 1.7389,0 0.0411,7.46937 0.0412,7.46937 -1.82103,0 -1.82105,0 0.0411,-7.46937 z m -3.4956,7.18728 c -0.37243,-0.0606 -0.37426,-0.0711 -0.26559,-1.50986 0.15019,-1.98812 0.20291,-2.16009 0.6627,-2.16009 0.21067,0 0.42314,0.10453 0.47215,0.23225 0.11595,0.30235 -0.20573,3.26455 -0.369,3.39713 -0.0689,0.0559 -0.294,0.0742 -0.50026,0.0405 z m 10.00484,-0.0553 c -0.14115,-0.22835 -0.41853,-3.13333 -0.32298,-3.38231 0.049,-0.12776 0.2603,-0.23225 0.46951,-0.23225 0.44377,0 0.49981,0.188 0.66582,2.23383 l 0.11024,1.35758 -0.41893,0.0801 c -0.23039,0.0441 -0.45701,0.0177 -0.50359,-0.0569 z m -14.92557,-0.72391 c -0.13052,-0.0386 -0.31792,-0.0949 -0.4167,-0.12481 -0.12835,-0.039 -0.0937,-0.4751 0.12165,-1.52878 0.39607,-1.93829 0.42881,-2.02782 0.74043,-2.02498 0.68288,0.006 0.71437,0.1872 0.34094,1.95803 -0.19527,0.9258 -0.39864,1.70747 -0.45207,1.73706 -0.0534,0.0295 -0.20382,0.0222 -0.33425,-0.0158 z m 20.01792,-0.0118 c -0.0378,-0.0614 -0.22638,-0.84913 -0.41922,-1.75048 -0.36916,-1.72561 -0.33571,-1.90937 0.34851,-1.91559 0.31162,-0.002 0.34435,0.0866 0.74042,2.02498 0.25148,1.23069 0.26504,1.48524 0.0821,1.5413 -0.12048,0.037 -0.32353,0.0996 -0.45117,0.13938 -0.12756,0.0396 -0.26294,0.0218 -0.30067,-0.0396 z m -25.38937,-1.44994 c -0.20054,-0.12678 -0.15985,-0.37322 0.28573,-1.73276 0.28571,-0.87171 0.58719,-1.62676 0.66991,-1.6779 0.25565,-0.15807 0.77993,0.0923 0.77993,0.37243 0,0.14606 -0.21927,0.92379 -0.48729,1.72825 -0.49544,1.48713 -0.67316,1.67366 -1.24828,1.30998 z m 29.8872,-1.30998 c -0.26801,-0.80446 -0.48729,-1.58217 -0.48729,-1.72825 0,-0.28306 0.5253,-0.52977 0.78554,-0.36894 0.0858,0.053 0.38259,0.81099 0.65944,1.68437 0.42079,1.32738 0.46674,1.61112 0.28008,1.72927 -0.56357,0.35676 -0.74444,0.16438 -1.23777,-1.31645 z m -34.59545,-0.5477 -0.3265,-0.28184 0.68941,-1.50177 c 0.37918,-0.826 0.78348,-1.52163 0.89844,-1.54587 0.11496,-0.0242 0.33768,0.05 0.49495,0.16497 0.27032,0.19766 0.24819,0.29447 -0.40516,1.77211 -0.38011,0.85965 -0.76616,1.58805 -0.85787,1.61862 -0.0917,0.0305 -0.31371,-0.0713 -0.49327,-0.22626 z m 39.89971,0.14823 c -0.0419,-0.0677 -0.37136,-0.79407 -0.73219,-1.61404 -0.61997,-1.4088 -0.64038,-1.50234 -0.37099,-1.69931 0.15689,-0.11477 0.37945,-0.18859 0.49479,-0.16438 0.21071,0.0443 1.45628,2.66209 1.45628,3.06059 0,0.11713 -0.1376,0.2867 -0.30577,0.37668 -0.3664,0.19607 -0.44241,0.20178 -0.54212,0.0404 z m -44.56478,-2.45515 c -1.01147,-0.59117 -1.36214,-0.8761 -1.29552,-1.05262 0.12067,-0.31957 5.60505,-9.84436 5.77222,-10.0245 0.19094,-0.20575 3.07988,1.53595 3.05539,1.84199 -0.0394,0.49119 -5.66572,10.0688 -5.90813,10.0571 -0.13051,-0.006 -0.86119,-0.37616 -1.62396,-0.82197 z m 45.19647,-4.06937 c -1.55349,-2.69755 -2.83396,-5.01906 -2.84547,-5.15893 -0.0138,-0.1624 0.4926,-0.55866 1.40181,-1.09765 0.78251,-0.46386 1.46915,-0.84462 1.52588,-0.84609 0.0986,-0.002 5.70537,9.61778 5.89732,10.11883 0.0679,0.17717 -0.29199,0.46145 -1.35043,1.06706 -0.79361,0.45407 -1.52429,0.82466 -1.62374,0.82352 -0.0994,-0.002 -1.45187,-2.20918 -3.00537,-4.90674 z m -49.58278,1.19006 c -0.16575,-0.19961 -0.12658,-0.34192 0.22756,-0.82992 0.23512,-0.32394 0.68987,-0.96162 1.01052,-1.41704 0.32068,-0.45542 0.66092,-0.82889 0.75614,-0.82994 0.0953,-0.002 0.29929,0.13761 0.45355,0.30802 0.27177,0.30032 0.24957,0.35158 -0.7194,1.65987 -0.99852,1.34818 -1.34524,1.57067 -1.72837,1.10901 z m 56.91502,-1.11205 c -0.94897,-1.30612 -0.9734,-1.3636 -0.70531,-1.65984 0.4107,-0.45381 0.56511,-0.38664 1.20695,0.52493 0.32065,0.45542 0.78151,1.10168 1.02411,1.43612 0.42882,0.59115 0.43264,0.6142 0.1376,0.82993 -0.16693,0.12205 -0.38824,0.22185 -0.4919,0.22185 -0.10374,0 -0.63083,-0.60882 -1.17149,-1.35299 z m -60.74533,-2.02868 c -0.15217,-0.11556 -0.27666,-0.278 -0.27666,-0.36113 0,-0.0831 0.47629,-0.67993 1.05842,-1.32626 1.07285,-1.19122 1.52262,-1.41445 1.83902,-0.91287 0.13485,0.21377 -0.048,0.49907 -0.98753,1.5413 -0.63414,0.70346 -1.19881,1.27673 -1.2548,1.27398 -0.0561,-0.002 -0.2263,-0.0996 -0.37845,-0.21502 z m 64.7457,-0.97726 c -0.59302,-0.65851 -1.10272,-1.26559 -1.13268,-1.34902 -0.0748,-0.20842 0.28341,-0.61532 0.54174,-0.61532 0.20044,0 1.0896,0.88037 2.04176,2.02154 0.41802,0.50099 0.42355,0.53094 0.15296,0.82994 -0.15434,0.17067 -0.33581,0.31016 -0.40316,0.31016 -0.0673,0 -0.60762,-0.53879 -1.20062,-1.1973 z m -68.48413,-2.78659 c -0.21024,-0.33782 -0.15985,-0.41164 1.02753,-1.50323 0.68674,-0.63141 1.32332,-1.14897 1.41462,-1.15015 0.24835,-0.004 0.54682,0.34407 0.53475,0.62225 -0.0118,0.25435 -2.20786,2.26729 -2.55729,2.34324 -0.10926,0.0238 -0.298,-0.11674 -0.41961,-0.31211 z m 72.06935,-0.70588 c -0.65209,-0.57827 -1.20929,-1.15023 -1.2382,-1.271 -0.0622,-0.25949 0.25252,-0.67958 0.50666,-0.6765 0.098,0.002 0.74735,0.5262 1.44291,1.16672 1.2623,1.1624 1.26409,1.1652 0.9635,1.49961 -0.16556,0.18425 -0.34347,0.33451 -0.39521,0.33382 -0.0518,0 -0.62758,-0.47437 -1.27966,-1.05265 z m -75.2154,-3.08785 c -0.39731,-0.39731 -0.16103,-0.74275 1.16893,-1.70904 l 1.35864,-0.98712 0.32774,0.32774 c 0.2776,0.2776 0.2957,0.36632 0.11831,0.58008 -0.19976,0.24072 -2.58968,1.97802 -2.72102,1.97802 -0.0346,0 -0.14823,-0.0854 -0.25258,-0.18976 z m 78.34162,-0.79832 c -0.75745,-0.54341 -1.37946,-1.0659 -1.38226,-1.16112 -0.002,-0.0953 0.13307,-0.29807 0.3018,-0.45081 0.29624,-0.2681 0.35372,-0.24367 1.65986,0.7053 0.74414,0.54066 1.35299,1.05053 1.35299,1.13307 0,0.22492 -0.31091,0.76156 -0.44125,0.76156 -0.0626,0 -0.73369,-0.44459 -1.49114,-0.988 z m -81.17971,-3.58873 c -0.45617,-0.78044 -0.82847,-1.51049 -0.82731,-1.62231 0.002,-0.21937 9.72985,-5.89423 10.10363,-5.89423 0.19016,0 1.89759,2.6409 1.90578,2.94776 0.002,0.0949 -9.65003,5.71815 -10.13464,5.90409 -0.14627,0.0561 -0.49141,-0.38402 -1.04746,-1.33531 z m 79.71444,-1.50016 c -2.77945,-1.60337 -5.07141,-2.97275 -5.09326,-3.04307 -0.086,-0.27699 1.65081,-2.97297 1.90198,-2.9522 0.40122,0.0331 10.06017,5.64854 10.06363,5.85066 0.004,0.21575 -1.60571,3.05987 -1.7315,3.05987 -0.048,0 -2.36141,-1.31185 -5.14085,-2.91526 z m -82.12642,-3.25321 c -0.0941,-0.17559 -0.13504,-0.37766 -0.091,-0.44886 0.0441,-0.0713 0.77125,-0.43381 1.61613,-0.80578 1.46604,-0.6455 1.54588,-0.66302 1.74982,-0.38412 0.11753,0.16063 0.1939,0.3866 0.16969,0.50193 -0.0443,0.2107 -2.66208,1.45626 -3.06059,1.45626 -0.11713,0 -0.28998,-0.1437 -0.384,-0.31943 z m 88.52764,-0.31554 c -1.39072,-0.63162 -1.5772,-0.83223 -1.22342,-1.31608 0.19701,-0.26943 0.29069,-0.24905 1.70396,0.37064 0.82251,0.36063 1.55544,0.71387 1.6287,0.78493 0.199,0.19311 -0.18248,0.79735 -0.49445,0.78312 -0.14902,-0.006 -0.87576,-0.28697 -1.61479,-0.62261 z m -90.32692,-4.35755 c -0.2138,-0.55716 -0.0663,-0.68222 1.3667,-1.15964 0.80446,-0.26802 1.58216,-0.48729 1.72825,-0.48729 0.28195,0 0.53002,0.52492 0.37024,0.78347 -0.0872,0.14095 -2.90803,1.1135 -3.22997,1.1135 -0.0766,0 -0.18248,-0.1126 -0.23522,-0.25004 z m 92.32051,-0.2206 c -1.59053,-0.51902 -1.7512,-0.62867 -1.60342,-1.09424 0.13917,-0.43842 0.36827,-0.42149 2.09924,0.15512 1.43309,0.47742 1.58049,0.60248 1.36669,1.15964 -0.12579,0.32807 -0.21268,0.3178 -1.86251,-0.2206 z m -93.69609,-4.86449 c -0.0852,-0.22402 -0.0965,-0.46573 -0.025,-0.53717 0.0714,-0.0715 0.86599,-0.28003 1.76569,-0.46351 1.35076,-0.27548 1.65929,-0.29658 1.77055,-0.12107 0.24373,0.38454 0.14823,0.75783 -0.21608,0.84462 -0.19567,0.0466 -0.98224,0.21967 -1.74802,0.38457 l -1.39232,0.29981 -0.15492,-0.40729 z m 95.06574,0.0482 c -0.88899,-0.18878 -1.66227,-0.38926 -1.71837,-0.44536 -0.0561,-0.0561 -0.0551,-0.28896 0.002,-0.51741 0.11771,-0.46945 0.2314,-0.46654 2.49901,0.0638 1.07286,0.25095 1.14607,0.29491 1.09643,0.65857 -0.0293,0.21432 -0.1004,0.43333 -0.15808,0.4867 -0.0577,0.0534 -0.83225,-0.0575 -1.72124,-0.2463 z m -56.67638,-3.09227 c -0.49993,-0.69156 -0.90897,-1.33541 -0.90897,-1.43078 0,-0.0955 0.21428,-0.3877 0.47617,-0.6496 0.38506,-0.38506 1.63266,-0.89237 6.52089,-2.65151 3.32459,-1.19645 6.41727,-2.29816 6.87261,-2.44822 l 0.82791,-0.27286 1.9699,1.35764 c 1.08344,0.7467 2.01663,1.43322 2.07371,1.52563 0.16457,0.26632 -2.06306,3.38754 -2.40613,3.37132 -0.15925,-0.008 -1.43907,-0.80784 -2.84382,-1.77843 -1.40474,-0.97058 -2.64962,-1.76321 -2.76643,-1.76138 -0.11674,0.002 -2.06192,1.35193 -4.32248,3.00022 -2.26058,1.64831 -4.21685,2.99655 -4.34726,2.99612 -0.13052,0 -0.64615,-0.56658 -1.1461,-1.25815 z m -39.2004,-2.11699 c -0.0441,-0.23042 -0.0177,-0.45704 0.0569,-0.50361 0.22835,-0.14115 3.13335,-0.41853 3.38233,-0.32298 0.12776,0.049 0.23223,0.2603 0.23223,0.46952 0,0.44376 -0.188,0.49982 -2.23383,0.66581 l -1.35758,0.11024 -0.0801,-0.4189 z m 96.62368,0.27634 c -0.21737,-0.0329 -0.69753,-0.0986 -1.06706,-0.14626 -0.5857,-0.0756 -0.67184,-0.13662 -0.67184,-0.47708 0,-0.21478 0.10452,-0.43059 0.23222,-0.47961 0.24898,-0.0955 3.15398,0.18189 3.38233,0.32298 0.0754,0.0466 0.10276,0.26421 0.0606,0.48365 -0.0693,0.36227 -0.1437,0.39701 -0.80871,0.37744 -0.40286,-0.0118 -0.91031,-0.0484 -1.12767,-0.0811 z m -96.90423,-5.50923 0,-1.81793 7.42984,0 7.42986,0 0,1.81793 0,1.81794 -7.42986,0 -7.42984,0 0,-1.81794 z m 84.1676,1.60908 c -0.0441,-0.11496 -0.0596,-0.91515 -0.0346,-1.77841 l 0.0457,-1.56957 7.46937,-0.0411 7.46937,-0.0411 0,1.81949 0,1.81949 -7.43481,0 c -6.01565,0 -7.45011,-0.0398 -7.51496,-0.20886 z m -48.47536,-8.47364 -10.23055,-7.04664 -0.17284,-0.79041 c -0.0951,-0.43473 -0.21313,-1.1205 -0.26234,-1.52394 l -0.0896,-0.73349 0.84989,-0.18307 c 0.46743,-0.10079 1.14411,-0.2238 1.5037,-0.27353 0.64972,-0.09 0.7218,-0.0437 11.50872,7.36844 5.97021,4.10238 10.95556,7.4366 11.07855,7.40935 0.12303,-0.0272 7.95432,-5.66934 17.40297,-12.538 9.44862,-6.86865 17.4194,-12.63758 17.71281,-12.81985 0.46479,-0.28869 0.64753,-0.31349 1.41895,-0.19252 0.87633,0.1374 0.89425,0.13228 1.73607,-0.50336 1.09562,-0.82721 1.26448,-0.88426 1.47165,-0.49719 0.27512,0.51406 0.21686,0.61153 -0.76371,1.27742 -0.83564,0.56747 -0.94499,0.70533 -1.03909,1.31006 -0.0579,0.37172 -0.14173,0.80467 -0.18642,0.96212 -0.0447,0.15748 -1.15985,1.08716 -2.47824,2.06603 -1.31836,0.97885 -2.49655,1.90158 -2.61818,2.05048 -0.2039,0.24963 -0.18544,0.25723 0.23713,0.0974 0.25205,-0.0953 2.32668,-1.24653 4.61033,-2.55828 2.28364,-1.31175 4.17996,-2.35645 4.21404,-2.32155 0.19848,0.20317 1.67157,2.88622 1.66907,3.03996 -0.004,0.20211 -9.66786,5.82364 -10.06787,5.85612 -0.15197,0.0118 -0.58475,-0.54831 -1.13409,-1.46929 -0.48857,-0.81908 -0.95942,-1.51079 -1.04637,-1.53712 -0.18465,-0.0559 -19.62695,14.02309 -20.03615,14.50905 -0.22508,0.26728 -10.32387,4.37417 -14.26763,5.80224 l -0.79042,0.2862 -10.23055,-7.04667 z m -34.1438,2.35578 c -1.29405,-0.15512 -1.36852,-0.19766 -1.26812,-0.72282 l 0.0797,-0.41764 1.44028,0.10886 c 2.04227,0.15413 2.17865,0.19915 2.12073,0.69876 -0.0425,0.36676 -0.12224,0.41804 -0.68048,0.43775 -0.34778,0.0118 -1.10929,-0.0349 -1.69223,-0.10473 z m 93.72228,0.0561 c -0.0579,-0.0579 -0.10532,-0.26367 -0.10532,-0.45712 0,-0.42382 0.20426,-0.48368 2.15163,-0.63073 l 1.44025,-0.10886 0.0799,0.41764 c 0.0439,0.22973 0.0205,0.4544 -0.0524,0.4993 -0.13878,0.0858 -2.5135,0.3818 -3.07935,0.38384 -0.1811,0 -0.37676,-0.0463 -0.43471,-0.10413 z m -92.66238,-4.97989 c -0.78251,-0.17343 -1.47874,-0.36916 -1.54717,-0.43483 -0.0685,-0.0657 -0.0551,-0.3018 0.0297,-0.52477 l 0.15413,-0.40542 1.66729,0.35093 c 0.917,0.19292 1.71246,0.39613 1.7677,0.45136 0.0553,0.0553 0.0549,0.28156 -6.3e-4,0.50296 -0.11949,0.47627 -0.18426,0.47812 -2.07103,0.0598 z m 91.83286,-0.0468 c -0.0573,-0.22847 -0.0614,-0.45816 -0.01,-0.5104 0.17067,-0.17068 3.3387,-0.8162 3.45575,-0.70411 0.0628,0.06 0.13386,0.28184 0.15808,0.49286 0.0408,0.35444 -0.0435,0.4044 -1.10557,0.65519 -2.25715,0.53306 -2.38107,0.53636 -2.49901,0.0665 z m -90.68676,-4.85263 c -1.40402,-0.48209 -1.58938,-0.66821 -1.23055,-1.23566 0.12677,-0.20056 0.37321,-0.15985 1.73276,0.28571 0.8717,0.28573 1.62677,0.58719 1.67789,0.66993 0.0512,0.0827 0.048,0.29205 -0.008,0.46516 -0.13327,0.42003 -0.50221,0.38859 -2.17318,-0.18523 z m 89.43531,0.18524 c -0.0549,-0.17303 -0.0581,-0.38244 -0.008,-0.46516 0.0512,-0.0827 0.8062,-0.3842 1.6779,-0.66993 1.35955,-0.44564 1.60595,-0.48627 1.73276,-0.28571 0.36369,0.5751 0.17717,0.75282 -1.30998,1.24828 -1.71864,0.57257 -1.96044,0.59249 -2.09373,0.17244 z m -82.31945,-6.04785 c -2.75864,-1.58685 -5.01698,-2.96656 -5.01851,-3.06601 -0.002,-0.0994 0.36876,-0.83013 0.82284,-1.62374 0.6056,-1.05844 0.88993,-1.41829 1.06704,-1.35043 0.51001,0.19528 10.12118,5.79956 10.11394,5.89732 -0.0158,0.22083 -1.66414,2.92624 -1.81239,2.97567 -0.0864,0.0287 -2.41426,-1.24596 -5.17292,-2.83281 z m -5.10033,1.28267 c -0.78251,-0.34896 -1.48665,-0.69668 -1.5648,-0.77271 -0.0835,-0.0813 -0.0358,-0.30026 0.11555,-0.53138 l 0.25758,-0.39314 1.54213,0.6946 c 0.84818,0.38203 1.56553,0.76475 1.59412,0.8505 0.0638,0.19174 -0.25327,0.80936 -0.40883,0.7962 -0.0622,-0.006 -0.75324,-0.29511 -1.53575,-0.64407 z m 85.75478,0.32871 c -0.0957,-0.17875 -0.15001,-0.39647 -0.12087,-0.48389 0.0596,-0.17874 2.73261,-1.40433 3.06307,-1.40433 0.27093,0 0.61326,0.62395 0.43642,0.79549 -0.1252,0.12126 -2.99474,1.41765 -3.13831,1.41765 -0.0364,0 -0.14468,-0.14626 -0.24027,-0.32492 z m -80.89375,-9.02815 c -1.31324,-0.96712 -1.53472,-1.32453 -1.06324,-1.71583 0.19965,-0.16575 0.34193,-0.12658 0.82993,0.22756 0.32394,0.23512 0.96161,0.68987 1.41705,1.01052 0.45544,0.32068 0.82891,0.66094 0.82993,0.75614 0.002,0.16437 -0.50184,0.70434 -0.6429,0.6892 -0.0366,-0.004 -0.65347,-0.43934 -1.37077,-0.96759 z m 3.05839,-3.97218 c -1.15037,-1.05765 -1.23445,-1.17643 -1.06149,-1.49963 0.10335,-0.19311 0.27427,-0.35042 0.37989,-0.34975 0.25285,0.002 2.54804,2.04046 2.61584,2.32368 0.0622,0.25947 -0.25251,0.67957 -0.50664,0.67648 -0.098,-0.001 -0.74047,-0.51904 -1.4276,-1.15078 z m 69.94226,0.92342 c -0.10473,-0.12619 -0.16673,-0.32737 -0.13799,-0.44696 0.0654,-0.26998 2.33971,-2.32708 2.57292,-2.32708 0.0935,0 0.26831,0.15729 0.38843,0.34969 0.20652,0.3307 0.1506,0.41202 -1.02903,1.49723 -0.68607,0.63115 -1.32763,1.1496 -1.42566,1.1521 -0.098,0.002 -0.26396,-0.0988 -0.36873,-0.22498 z m -57.36457,-5.97518 c -1.56798,-2.71705 -2.89181,-5.047 -2.94189,-5.17771 -0.0658,-0.17146 0.30378,-0.46841 1.32797,-1.06706 0.78044,-0.45617 1.51047,-0.828 1.62228,-0.82629 0.21813,0.004 5.83791,9.63536 5.87315,10.06628 0.0138,0.16752 -0.47772,0.55093 -1.40165,1.09373 -0.78251,0.45971 -1.46916,0.83926 -1.52589,0.84348 -0.0567,0.004 -1.38602,-2.21541 -2.95397,-4.93243 z m 42.10335,4.0959 c -0.7825,-0.46131 -1.42274,-0.94025 -1.42274,-1.06435 0,-0.34931 5.66738,-10.10127 5.87177,-10.10363 0.0994,-10e-4 0.83013,0.36943 1.62374,0.82351 0.98704,0.56475 1.41604,0.8957 1.35782,1.04746 -0.18701,0.48719 -5.81022,10.14098 -5.90557,10.13844 -0.0563,-10e-4 -0.74251,-0.38015 -1.52502,-0.84143 z m -51.13952,-2.56433 c -0.56512,-0.64573 -1.0496,-1.27639 -1.07659,-1.40143 -0.027,-0.125 0.11319,-0.3142 0.31148,-0.42032 0.33566,-0.17973 0.43977,-0.1067 1.50916,1.05639 1.19346,1.29809 1.27895,1.45527 0.96324,1.77099 -0.35751,0.35752 -0.68109,0.16693 -1.70729,-1.00563 z m 62.94825,1.00563 c -0.31571,-0.3157 -0.23022,-0.4729 0.9626,-1.7703 1.0916,-1.1873 1.16542,-1.23775 1.50324,-1.02752 0.19548,0.12166 0.33583,0.31042 0.31211,0.4196 -0.076,0.34943 -2.08888,2.54625 -2.34324,2.55729 -0.13484,0.006 -0.33037,-0.0748 -0.43471,-0.17913 z m -32.328,-0.54298 c -0.0606,-0.0606 -0.11044,-3.442 -0.11044,-7.51392 l 0,-7.4035 1.8195,0 1.81947,0 -0.0411,7.46937 -0.0412,7.46937 -1.66801,0.0445 c -0.91739,0.0246 -1.71768,-0.006 -1.77841,-0.0659 z m -26.38177,-3.10268 c -0.32065,-0.45542 -0.7754,-1.09311 -1.01052,-1.41705 -0.35424,-0.488 -0.39325,-0.63028 -0.22756,-0.82991 0.39581,-0.47694 0.74951,-0.25085 1.73972,1.11204 0.94897,1.30614 0.9734,1.36362 0.70531,1.65987 -0.4107,0.4538 -0.56511,0.38664 -1.20695,-0.52495 z m 54.97512,0.52879 c -0.27272,-0.30135 -0.25158,-0.35149 0.70182,-1.66371 0.98889,-1.36108 1.34403,-1.58884 1.73772,-1.11446 0.21244,0.25599 0.0823,0.48993 -1.22427,2.19983 -0.70467,0.92224 -0.84403,0.98856 -1.21527,0.57834 z m -46.23967,-4.9532 c -0.0764,-0.19567 -0.35925,-0.84249 -0.62841,-1.43748 -0.26914,-0.59499 -0.48936,-1.17937 -0.48936,-1.29862 0,-0.27378 0.62267,-0.61835 0.79549,-0.44018 0.0711,0.0732 0.42429,0.80617 0.78495,1.62868 0.61375,1.39978 0.63786,1.50854 0.37687,1.69939 -0.40931,0.2993 -0.68249,0.24991 -0.83954,-0.15177 z m 37.86723,0.15118 c -0.27888,-0.20392 -0.26136,-0.28378 0.38412,-1.74982 0.372,-0.84488 0.7346,-1.57213 0.8058,-1.61613 0.19607,-0.12126 0.7683,0.23259 0.7683,0.47497 0,0.39849 -1.24557,3.01628 -1.45628,3.06059 -0.11536,0.0242 -0.3412,-0.0522 -0.50194,-0.16969 z m -33.36293,-2.04811 c -0.11595,-0.28257 -0.37662,-1.03362 -0.57928,-1.669 -0.31759,-0.99574 -0.33647,-1.17547 -0.13682,-1.30175 0.57279,-0.36227 0.75115,-0.17461 1.24616,1.31128 0.55534,1.66691 0.58688,1.94311 0.23723,2.07729 -0.43914,0.1685 -0.5519,0.10708 -0.76731,-0.41782 z m 28.87931,0.41089 c -0.29423,-0.12146 -0.24691,-0.45971 0.28969,-2.07036 0.49414,-1.48323 0.67381,-1.67337 1.24173,-1.31402 0.19134,0.12107 0.14154,0.40115 -0.31616,1.77601 -0.52798,1.58589 -0.70431,1.81926 -1.21526,1.60837 z m -24.13327,-1.43843 c -0.0476,-0.15216 -0.22207,-0.93954 -0.38764,-1.74974 l -0.30101,-1.4731 0.39024,-0.14842 c 0.21463,-0.0817 0.44576,-0.11398 0.51363,-0.072 0.0679,0.0419 0.2831,0.83373 0.47831,1.75951 0.29458,1.39687 0.31839,1.70642 0.13997,1.81943 -0.35219,0.22314 -0.74104,0.15985 -0.83354,-0.13563 z m 19.37347,0.13563 c -0.17835,-0.11299 -0.15453,-0.42256 0.13996,-1.81943 0.19528,-0.92578 0.41046,-1.71756 0.47831,-1.75951 0.0679,-0.0419 0.30107,-0.008 0.51822,0.0738 l 0.39481,0.1502 -0.29981,1.3923 c -0.16496,0.76578 -0.33796,1.55238 -0.38457,1.74802 -0.087,0.36512 -0.46021,0.45971 -0.84696,0.21464 z m -14.61657,-1.00505 c -0.0469,-0.19567 -0.13406,-1.00381 -0.1939,-1.79595 l -0.10886,-1.44025 0.41764,-0.0799 c 0.22971,-0.0439 0.45575,-0.0177 0.50233,0.0571 0.14114,0.22835 0.41853,3.13335 0.32297,3.38233 -0.14586,0.38016 -0.84162,0.28882 -0.9403,-0.12343 z m 9.7529,0.12343 c -0.0955,-0.24898 0.18189,-3.15398 0.32298,-3.38233 0.0466,-0.0754 0.27319,-0.10099 0.50359,-0.0569 l 0.41892,0.0801 -0.11024,1.3576 c -0.16595,2.04575 -0.22205,2.2338 -0.66582,2.2338 -0.20921,0 -0.42049,-0.10452 -0.46951,-0.23222 z"
         id="path3579"
         inkscape:connector-curvature="0" />
      <path
         sodipodi:nodetypes="sssssscsscccssccsssssssssssss"
         style="fill:#b50e0d"
         d="m 434.84574,853.14191 c -0.10158,-0.12224 -0.15827,-0.3016 -0.12599,-0.39839 0.0323,-0.0969 3.15123,-1.42206 6.93102,-2.94502 3.77981,-1.52293 6.95222,-2.83448 7.04982,-2.91452 0.0976,-0.0801 0.20961,-0.70112 0.2489,-1.38016 0.0898,-1.55043 0.7293,-3.00669 1.78333,-4.06072 1.09555,-1.09555 1.91884,-1.41612 3.63936,-1.41709 1.27616,-0.002 1.53372,0.0518 2.50009,0.50948 0.71265,0.33754 1.3672,0.81194 1.93351,1.40133 l 0.85615,0.89106 7.75278,-3.04654 23.50419,-9.3201 c 0.26684,0 0.4177,0.21487 0.74434,1.06005 0.26093,0.67515 0.35473,1.115 0.25835,1.2114 -0.0833,0.0833 -2.05688,0.83711 -4.38588,1.6753 l -27.19595,9.84979 c -0.12028,0.0933 -0.1976,0.53609 -0.1976,1.13088 0,1.92207 -1.03828,3.90779 -2.58779,4.94924 -1.01277,0.68068 -1.83379,0.88123 -3.26125,0.79659 -1.55738,-0.0923 -2.76336,-0.66234 -4.01316,-1.89672 -0.6416,-0.63369 -1.01834,-0.89549 -1.18978,-0.82684 -0.13799,0.0553 -2.17156,0.77615 -4.51909,1.60199 -10.09654,3.55187 -9.52665,3.36852 -9.72543,3.12899 z m 20.87496,-5.33117 c 0.99082,-0.50056 1.46532,-1.25635 1.37799,-2.19491 -0.20197,-2.17056 -1.77152,-3.16264 -3.64595,-2.3045 -1.08374,0.49615 -1.45171,1.02381 -1.45171,2.0817 0,1.54105 1.04914,2.7734 2.36111,2.7734 0.36473,0 0.96619,-0.15748 1.35856,-0.35569 z"
         id="path3581"
         inkscape:connector-curvature="0" />
    </g>
    <path
       sodipodi:type="arc"
       style="color:#000000;fill:#32c81e;fill-opacity:1;stroke:#d1d2d1;stroke-width:0.14460367;stroke-linecap:round;stroke-linejoin:round;stroke-miterlimit:4;stroke-opacity:1;stroke-dasharray:none;marker:none;visibility:visible;display:inline;overflow:visible;enable-background:accumulate"
       id="path3017"
       sodipodi:cx="44.69101"
       sodipodi:cy="-8.052433"
       sodipodi:rx="12.682584"
       sodipodi:ry="15.702247"
       d="M 44.69101,-23.75468 A 12.682584,15.702247 0 0 1 50.250689,6.0606526 L 44.69101,-8.052433 z"
       transform="matrix(5.3861938,0,0,4.3506633,238.83294,870.20507)"
       sodipodi:start="4.712389"
       sodipodi:end="7.400196" />
    <g
       id="g3005"
       transform="translate(0,-4.100377)">
      <path
         d="m 564.2954,812.96784 10.15413,4.61011 0,-4.82797 -7.63471,-3.28793 1.23719,-1.94196 c 1.02179,-1.9983 1.81444,-4.49492 2.02482,-8.18477 l 0.005,-0.0513 0,-0.0613 0.025,-18.40915 0,-1.96199 -1.96722,0 -13.05925,0 c 0,0 0.29804,-5.6581 -0.57225,-6.83629 -1.32608,-1.77418 -5.72384,-4.05294 -5.72384,-4.05294 l -0.0337,-1.88561 c 0,0 1.73681,-1.44739 2.39672,-3.67232 0.75383,-2.56048 0.23917,-4.17189 -0.68997,-5.80082 -1.01178,-1.77043 -4.4065,-2.89103 -4.4065,-2.89103 0,0 -0.30805,-1.41108 0.47834,-2.08344 0.5973,-0.50333 14.51807,-0.20785 14.51807,-0.20785 2.94519,-0.0363 5.16034,-1.52377 5.2242,-3.3618 l -0.005,-6.15516 c 0,0 -1.68671,1.08805 -3.54624,1.22703 -2.27401,0.16652 -12.83011,-0.10017 -13.75424,-0.0125 -0.92913,0.0964 -3.52745,0.94156 -4.17735,3.94276 -0.33309,1.51626 -0.23041,4.92939 -0.23041,4.92939 l 0,1.74664 c 0,0 -1.40873,0.15651 -2.40674,0.42821 -0.94416,0.25667 -2.82622,1.31091 -3.71153,3.59218 l -1.78565,0.01 0.005,5.00827 1.86829,0.005 c 1.10068,2.32759 3.39473,3.40562 3.39473,3.40562 l -0.005,1.78795 c 0,0 -2.70476,1.63895 -3.56127,2.33511 -0.8515,0.6974 -2.62713,1.59012 -2.67597,4.57129 l 0.0489,16.10034 c 0,0 -4.33765,-4.20319 -4.49417,-4.82296 0,0 1.45256,-14.98975 -2.96898,-22.24549 -4.84353,-7.95814 -22.9066,-7.15807 -22.9066,-7.15807 l 0.0238,22.61109 3.86932,0 c 0,0 2.82247,-2.99369 3.39974,-3.56839 2.12248,-2.11975 4.93494,-4.32089 4.93494,-4.32089 l 4.34892,0.0263 c 0,0 -4.3677,2.93735 -7.46441,6.4732 -2.23518,2.54295 -4.58808,5.67813 -5.1115,6.73487 l -54.73032,-24.15615 0,2.01584 53.56561,25.03133 c -1.40372,5.06712 -0.6261,8.91097 -0.6261,8.91097 l -19.77608,-0.0388 0,22.91784 4.93118,-0.01 0,-16.94925 16.75327,3.68359 c 0.55723,1.99954 6.55905,12.50815 15.89675,20.43624 6.53025,5.5354 11.99864,7.03287 11.99864,7.03287 0,0 -3.63892,10.18808 -1.42877,15.33784 2.8087,6.56333 8.0905,10.2995 8.0905,10.2995 l -8.4574,17.03563 5.33189,0.005 11.60795,-22.6449 -1.63913,-9.9364 c 0,0 6.85332,-3.07884 10.48221,-8.16475 2.29906,-3.21155 1.90837,-8.03326 1.5014,-9.91888 l 2.74984,0.01 c 0,0 1.09568,7.95188 -2.82748,12.73353 -1.33485,1.62519 -3.28704,3.65604 -5.49343,5.19107 -2.02982,1.39606 -3.40474,2.06217 -3.40474,2.06217 0.21037,1.41483 1.2184,6.71233 1.2184,6.71233 6.956,-1.31592 13.12937,-7.80539 15.3007,-11.50401 4.95497,-8.42391 3.20815,-17.61158 3.20815,-17.61158 l -9.72338,-0.003 -1.28226,0.0364 c -0.71877,-1.99955 -1.84325,-4.07799 -2.3817,-4.97823 -0.18157,-0.29673 -0.47959,-0.64606 -0.7388,-1.0029 1.57528,-1.08054 3.24823,-2.49162 4.80848,-4.27706"
         style="fill:#8ccae3;fill-opacity:1;fill-rule:nonzero;stroke:none"
         id="path158-0"
         inkscape:connector-curvature="0" />
      <path
         d="m 539.74526,798.39114 0.0288,-16.45843 27.20667,-0.0188 -0.01,16.65877 c -0.30303,5.15725 -1.86328,7.34337 -3.64892,9.81245 -4.33389,6.00866 -10.68257,7.77909 -10.68257,7.77909 0,0 -10.3019,-6.03496 -12.12637,-12.07744 -0.43952,-1.44989 -0.66993,-3.46573 -0.7676,-5.69565"
         style="fill:#ffffff;fill-opacity:1;fill-rule:nonzero;stroke:none"
         id="path162-8"
         inkscape:connector-curvature="0" />
      <path
         d="m 550.73138,801.14708 0,-5.51663 c 0,-1.19822 -0.76762,-1.59514 -1.47762,-1.59514 -0.70874,0 -1.45756,0.4157 -1.45756,1.59514 l 0,5.51663 -2.25522,0 0,-12.35165 2.25522,0 0,4.14435 c 0.60731,-0.62102 1.36991,-0.93406 2.16756,-0.93406 1.981,0 3.02284,1.38729 3.02284,3.29668 l 0,5.84468 -2.25522,0 z"
         style="fill:#005e8a;fill-opacity:1;fill-rule:nonzero;stroke:none"
         id="path166-8"
         inkscape:connector-curvature="0" />
      <path
         d="m 559.32076,801.14707 -2.03985,0 c -0.91411,-3.34302 -1.14452,-7.58127 -4.68575,-8.81831 -0.0876,-0.13147 0.10267,-0.22037 0.10267,-0.22037 l 2.74359,0 c 1.8783,0.94907 2.66093,2.86598 2.99402,5.58548 l 1.82446,-5.58548 2.37669,0 -3.31584,9.03868 z"
         style="fill:#005e8a;fill-opacity:1;fill-rule:nonzero;stroke:none"
         id="path170-5"
         inkscape:connector-curvature="0" />
      <path
         d="m 393.10506,812.96784 -10.15413,4.61011 0,-4.82797 7.63469,-3.28793 -1.24219,-1.94196 c -1.01679,-1.9983 -1.80944,-4.49492 -2.01981,-8.18477 l -0.005,-0.0513 0,-0.0613 -0.025,-18.40915 0,-1.96199 1.97223,0 13.05424,0 c 0,0 -0.29552,-5.6581 0.57977,-6.83629 1.31858,-1.77418 5.71633,-4.05294 5.71633,-4.05294 l 0.0388,-1.88561 c 0,0 -1.74181,-1.44739 -2.39922,-3.67232 -0.75634,-2.56048 -0.24168,-4.17189 0.68996,-5.80082 1.00928,-1.77043 4.40401,-2.89103 4.40401,-2.89103 0,0 0.30804,-1.41108 -0.47835,-2.08344 -0.59479,-0.50333 -14.51306,-0.20785 -14.51306,-0.20785 -2.9502,-0.0363 -5.16034,-1.52377 -5.22922,-3.3618 l 0.01,-6.15516 c 0,0 1.68171,1.08805 3.54123,1.22703 2.27401,0.16652 12.83012,-0.10017 13.75425,-0.0125 0.92914,0.0964 3.52746,0.94156 4.17735,3.94276 0.33309,1.51626 0.23041,4.92939 0.23041,4.92939 l 0,1.74664 c 0,0 1.40873,0.15651 2.40173,0.42821 0.94917,0.25667 2.83124,1.31091 3.71655,3.59218 l 1.78564,0.01 -0.005,5.00827 -1.86828,0.005 c -1.09568,2.32759 -3.39474,3.40562 -3.39474,3.40562 l 0.005,1.78795 c 0,0 2.70977,1.63895 3.56127,2.33511 0.8515,0.6974 2.62713,1.59012 2.67597,4.57129 l -0.0489,16.10034 c 0,0 4.33765,-4.20319 4.49417,-4.82296 0,0 -1.45256,-14.98975 2.96898,-22.24549 4.84354,-7.95814 22.90661,-7.15807 22.90661,-7.15807 l -0.0238,22.61109 -3.86933,0 c 0,0 -2.82247,-2.99369 -3.39973,-3.56839 -2.11748,-2.11975 -4.93495,-4.32089 -4.93495,-4.32089 l -4.3439,0.0263 c 0,0 4.36269,2.93735 7.45939,6.4732 2.23018,2.54295 4.58808,5.67813 5.1115,6.73487 l 54.73017,-24.15615 0,2.01584 -53.5656,25.03133 c 1.40873,5.06712 0.6261,8.91097 0.6261,8.91097 l 19.77608,-0.0388 0.005,22.91784 -4.9362,-0.01 0,-16.94925 -16.75326,3.68359 c -0.56224,1.99954 -6.55906,12.50815 -15.90176,20.43624 -6.52525,5.5354 -11.98862,7.03287 -11.98862,7.03287 0,0 3.63391,10.18808 1.42376,15.33784 -2.80869,6.56333 -8.09051,10.2995 -8.09051,10.2995 l 8.4574,17.03563 -5.33188,0.005 -11.60795,-22.6449 1.63914,-9.9364 c 0,0 -6.84832,-3.07884 -10.48222,-8.16475 -2.29905,-3.21155 -1.90837,-8.03326 -1.5014,-9.91888 l -2.74483,0.01 c 0,0 -1.10069,7.95188 2.82247,12.73353 1.33485,1.62519 3.29205,3.65604 5.49343,5.19107 2.02982,1.39606 3.40474,2.06217 3.40474,2.06217 -0.20661,1.41483 -1.2209,6.71233 -1.2209,6.71233 -6.94849,-1.31592 -13.12687,-7.80539 -15.2982,-11.50401 -4.95497,-8.42391 -3.20814,-17.61158 -3.20814,-17.61158 l 9.72337,-0.003 1.28226,0.0364 c 0.71877,-1.99955 1.84325,-4.07799 2.3817,-4.97823 0.18157,-0.29673 0.47959,-0.64606 0.74131,-1.0029 -1.57779,-1.08054 -3.25074,-2.49162 -4.81098,-4.27706"
         style="fill:#8ccae3;fill-opacity:1;fill-rule:nonzero;stroke:none"
         id="path174-0"
         inkscape:connector-curvature="0" />
      <path
         d="m 417.65519,798.39114 -0.0338,-16.45843 -27.20167,-0.0188 0.015,16.65877 c 0.29802,5.15725 1.85827,7.34337 3.6439,9.81245 4.33139,6.00866 10.68758,7.77909 10.68758,7.77909 0,0 10.29689,-6.03496 12.12136,-12.07744 0.43952,-1.44989 0.66993,-3.46573 0.7676,-5.69565"
         style="fill:#ffffff;fill-opacity:1;fill-rule:nonzero;stroke:none"
         id="path178-9"
         inkscape:connector-curvature="0" />
      <path
         d="m 401.16126,799.53803 0,-4.69525 c 0,-1.05675 -0.66993,-1.41359 -1.28101,-1.41359 -0.5973,0 -1.29729,0.35686 -1.29729,1.36976 l 0,4.73908 -1.93591,0 0,-4.69525 c 0,-1.05675 -0.67118,-1.41359 -1.28226,-1.41359 -0.61108,0 -1.29604,0.35686 -1.29604,1.41359 l 0,4.69525 -1.93714,0 0,-7.76408 1.89332,0 0,0.71619 c 0.50338,-0.52336 1.21714,-0.80633 1.93716,-0.80633 0.86027,0 1.56526,0.31301 2.05362,0.98538 0.65616,-0.68737 1.35739,-0.98538 2.3266,-0.98538 0.77512,0 1.47385,0.25417 1.9071,0.68613 0.62611,0.62604 0.849,1.35725 0.849,2.20614 l 0,4.96194 -1.93714,0 z"
         style="fill:#005e8a;fill-opacity:1;fill-rule:nonzero;stroke:none"
         id="path182-6"
         inkscape:connector-curvature="0" />
      <path
         d="m 408.26852,799.62604 c -1.55023,0 -3.47237,-0.83137 -3.47237,-3.97655 0,-3.14519 1.92214,-3.96655 3.47237,-3.96655 1.07064,0 1.87581,0.32804 2.56326,1.04422 l -1.31355,1.31343 c -0.40321,-0.43573 -0.74632,-0.61102 -1.24971,-0.61102 -0.46456,0 -0.82144,0.16153 -1.10569,0.50584 -0.29803,0.37187 -0.43076,0.89273 -0.43076,1.71408 0,0.8176 0.13273,1.35473 0.43076,1.7266 0.28425,0.34306 0.64113,0.50834 1.10569,0.50834 0.50339,0 0.8465,-0.18029 1.24971,-0.61101 l 1.31355,1.29589 c -0.68745,0.71493 -1.49262,1.05674 -2.56326,1.05674"
         style="fill:#005e8a;fill-opacity:1;fill-rule:nonzero;stroke:none"
         id="path186-3"
         inkscape:connector-curvature="0" />
      <path
         d="m 411.88327,795.29278 0,-1.26711 2.32785,-2.54797 c 0.23542,-0.25416 0.32807,-0.43571 0.32807,-0.70116 0,-0.38938 -0.22539,-0.64106 -0.62611,-0.64106 -0.29802,0 -0.6261,0.13399 -0.6261,0.65484 l -1.4037,0 c 0,-1.23704 0.91035,-1.92193 2.0298,-1.92193 1.15956,0 2.02483,0.71618 2.02483,1.90815 0,0.65484 -0.283,1.01168 -0.77262,1.54756 l -1.56526,1.70156 2.33788,0 0,1.2671 -4.05465,0 z"
         style="fill:#005e8a;fill-opacity:1;fill-rule:nonzero;stroke:none"
         id="path190-8"
         inkscape:connector-curvature="0" />
      <path
         transform="translate(371.72715,701.9464)"
         d="m 106.89606,107.70131 c 0,27.23932 -22.08183,49.32116 -49.321155,49.32116 -27.239324,0 -49.321159,-22.08184 -49.321159,-49.32116 0,-27.239325 22.081835,-49.32116 49.321159,-49.32116 27.239325,0 49.321155,22.081835 49.321155,49.32116 z"
         sodipodi:ry="49.321159"
         sodipodi:rx="49.321159"
         sodipodi:cy="107.70131"
         sodipodi:cx="57.574905"
         id="path4412"
         style="color:#000000;fill:none;stroke:none;stroke-width:0.75;marker:none;visibility:visible;display:inline;overflow:visible;enable-background:accumulate"
         sodipodi:type="arc" />
    </g>
  </g>
</svg>
